<svg width="359" height="186" viewBox="0 0 359 186" fill="none" xmlns="http://www.w3.org/2000/svg">
<path fill-rule="evenodd" clip-rule="evenodd" d="M206.892 188.569C205.336 186.667 203.78 184.765 202.228 182.867C203.816 184.733 205.37 186.632 206.892 188.569Z" fill="white"/>
<path fill-rule="evenodd" clip-rule="evenodd" d="M16.6055 37.8345C15.9861 38.5724 15.3651 39.3091 14.7445 40.0452C13.9342 38.1288 14.4783 37.3299 16.6055 37.8345Z" fill="white"/>
<path fill-rule="evenodd" clip-rule="evenodd" d="M138.401 178.622C135.746 179.734 117.084 189.557 120.313 179.143C121.168 176.386 123.607 173.162 126.561 172.59C130.115 171.903 137.167 174.059 138.401 178.622Z" fill="white"/>
<path fill-rule="evenodd" clip-rule="evenodd" d="M53.6912 171.147C55.4155 168.097 60.8308 152.906 66.4835 161.647C68.639 164.98 65.6349 166.869 63.547 169.137C60.1827 172.792 58.5757 175.16 53.6912 171.147Z" fill="white"/>
<path fill-rule="evenodd" clip-rule="evenodd" d="M39.707 146.266C34.1453 148.133 25.304 131.46 30.7839 130.627C38.3872 129.473 41.2381 141.939 39.707 146.266Z" fill="white"/>
<path fill-rule="evenodd" clip-rule="evenodd" d="M36.5186 172.788C35.8052 175.479 18.3011 176.545 18.424 170.766C18.4869 167.803 23.7144 166.388 26.0688 166.505C30.4835 166.726 34.0197 169.322 36.5186 172.788Z" fill="white"/>
<path fill-rule="evenodd" clip-rule="evenodd" d="M162.983 187.391C160.85 189.211 157.704 192.795 154.333 190.256C151.37 188.025 153.156 183.96 154.842 181.45C156.591 178.846 159.955 176.26 163.29 178.923C166.887 181.797 162.418 186.8 162.983 187.391Z" fill="white"/>
<path fill-rule="evenodd" clip-rule="evenodd" d="M-1.77526 181.701C4.18228 186.09 -0.531286 196.461 -7.18721 188.039C-9.06396 185.665 -12.1373 182.334 -10.2208 179.731C-7.95597 176.655 -3.91764 179.794 -1.77526 181.701Z" fill="white"/>
<path fill-rule="evenodd" clip-rule="evenodd" d="M96.5413 152.129C100.263 155.141 100.063 164.449 94.9148 161.964C93.2675 161.169 89.2985 153.443 89.5657 152.177C90.2723 148.829 93.3861 150.839 96.5413 152.129Z" fill="white"/>
<path fill-rule="evenodd" clip-rule="evenodd" d="M-8.23148 153.882C-8.66929 150.078 -9.5772 139 -1.9343 146.052C2.94825 150.557 -3.9014 158.349 -8.23148 153.882Z" fill="white"/>
</svg>
