<svg width="415" height="186" viewBox="0 0 415 186" fill="none" xmlns="http://www.w3.org/2000/svg">
<path fill-rule="evenodd" clip-rule="evenodd" d="M59.833 23.3208C58.8857 24.406 57.9385 25.4912 56.9926 26.5776C56.6353 24.4067 57.3698 23.1446 59.833 23.3208Z" fill="white"/>
<path fill-rule="evenodd" clip-rule="evenodd" d="M228.929 94.2213C228.063 93.8262 227.196 93.4303 226.329 93.0345C227.005 91.4768 227.872 91.8727 228.929 94.2213Z" fill="white"/>
<path fill-rule="evenodd" clip-rule="evenodd" d="M172.862 4.25779C165.764 -0.0530845 166.102 -13.1281 175.65 -6.3415C179.142 -3.85962 179.998 -0.169421 180.376 3.48541C180.912 8.67234 176.869 8.00178 172.862 4.25779Z" fill="white"/>
<path fill-rule="evenodd" clip-rule="evenodd" d="M419.257 48.4825C415.694 54.2419 401.893 50.9059 407.466 44.7756C411.524 40.3139 425.289 41.1402 419.257 48.4825Z" fill="white"/>
<path fill-rule="evenodd" clip-rule="evenodd" d="M377.531 47.1714C369.171 48.5122 366.936 31.458 373.654 30.9352C377.085 30.6687 379.819 35.7616 380.175 38.6C380.539 41.5129 378.567 44.543 377.531 47.1714Z" fill="white"/>
<path fill-rule="evenodd" clip-rule="evenodd" d="M317.843 32.1747C313.63 28.8189 316.355 18.0222 323 23.3803C328.937 28.1688 323.987 37.7096 317.843 32.1747Z" fill="white"/>
<path fill-rule="evenodd" clip-rule="evenodd" d="M344.518 46.5283C342.293 47.8284 339.898 50.0182 337.039 47.9446C334.013 45.7506 334.647 42.3637 336.533 40.3975C338.08 38.7852 341.636 37.4396 344.037 38.8881C347.56 41.015 345.568 43.8596 344.518 46.5283Z" fill="white"/>
<path fill-rule="evenodd" clip-rule="evenodd" d="M74.3217 35.2652C77.3483 38.8817 63.2032 43.4334 61.3279 36.4951C60.6981 34.1667 64.3952 32.4676 66.1882 32.1194C69.7368 31.4309 71.4193 32.7348 74.3217 35.2652Z" fill="white"/>
<path fill-rule="evenodd" clip-rule="evenodd" d="M197.791 39.7698C199.143 41.5557 201.753 44.4493 201.736 46.6603C201.705 50.6609 197.053 50.344 193.962 47.8054C188.196 43.0691 190.837 36.1483 197.791 39.7698Z" fill="white"/>
<path fill-rule="evenodd" clip-rule="evenodd" d="M209.509 11.2573C206.51 14.2659 196.427 13.5041 199.583 7.59063C202.052 2.96462 212.801 4.05786 209.509 11.2573Z" fill="white"/>
<path fill-rule="evenodd" clip-rule="evenodd" d="M155.178 17.8076C158.017 21.5789 147.239 26.9536 143.728 23.2699C141.862 21.3116 144.229 17.4378 146.277 16.0624C149.294 14.0386 152.027 15.1153 155.178 17.8076Z" fill="white"/>
<path fill-rule="evenodd" clip-rule="evenodd" d="M421.372 68.7996C425.781 72.5254 421.7 81.1987 416.774 78.0319C412.323 75.1712 414.848 63.2887 421.372 68.7996Z" fill="white"/>
<path fill-rule="evenodd" clip-rule="evenodd" d="M383.011 11.1916C385.069 6.55834 399.664 6.96787 398.104 12.7656C397.007 16.8525 385.7 13.4014 383.011 11.1916Z" fill="white"/>
<path fill-rule="evenodd" clip-rule="evenodd" d="M280.166 6.73458C280.571 4.11684 280.272 3.19165 283.094 3.24397C285.551 3.2895 289.658 6.75118 290.377 9.03543C293.128 17.7834 282.446 8.85464 280.166 6.73458Z" fill="white"/>
<path fill-rule="evenodd" clip-rule="evenodd" d="M279.435 32.7495C277.619 34.3597 266.585 34.5116 266.352 29.5198C266.066 23.4035 277.631 29.5783 279.435 32.7495Z" fill="white"/>
<path fill-rule="evenodd" clip-rule="evenodd" d="M241.822 74.0829C236.466 66.9093 244.38 66.4907 249.269 70.9003C257.1 77.9644 246.493 76.4211 241.822 74.0829Z" fill="white"/>
<path fill-rule="evenodd" clip-rule="evenodd" d="M122.757 12.5111C119.526 14.1242 106.176 8.9472 108.602 4.84535C111.328 0.238842 120.864 10.3538 122.757 12.5111Z" fill="white"/>
<path fill-rule="evenodd" clip-rule="evenodd" d="M74.2944 35.2043C73.8519 34.2278 73.4099 33.2519 72.9835 32.2637C73.4394 33.2261 73.8669 34.2152 74.2944 35.2043Z" fill="white"/>
</svg>
