<svg width="11" height="14" viewBox="0 0 11 14" xmlns="http://www.w3.org/2000/svg">
<path d="M1.22222 10.4186H9.77778V5.88065C9.77778 3.35219 7.86256 1.30233 5.5 1.30233C3.13744 1.30233 1.22222 3.35219 1.22222 5.88065V10.4186ZM5.5 0C8.53722 0 11 2.63265 11 5.88065V11.7209H0V5.88065C0 2.63265 2.46278 0 5.5 0ZM3.97222 12.3721H7.02778C7.02778 12.8038 6.86682 13.2179 6.5803 13.5232C6.29379 13.8285 5.90519 14 5.5 14C5.09481 14 4.70621 13.8285 4.4197 13.5232C4.13318 13.2179 3.97222 12.8038 3.97222 12.3721V12.3721Z" />
</svg>
