<svg width="22" height="20" viewBox="0 0 22 20" fill="inherit" xmlns="http://www.w3.org/2000/svg">
<path d="M2 17.7861V4.48615C1.99994 4.28088 2.06305 4.08055 2.18077 3.91239C2.29849 3.74422 2.4651 3.61635 2.658 3.54615L12.329 0.0301501C12.4045 0.00265599 12.4856 -0.00621693 12.5653 0.00428361C12.645 0.0147842 12.721 0.0443486 12.7869 0.0904703C12.8527 0.136592 12.9065 0.197911 12.9436 0.269228C12.9807 0.340545 13 0.419758 13 0.50015V5.45315L19.316 7.55815C19.5152 7.6245 19.6885 7.75187 19.8112 7.9222C19.934 8.09253 20.0001 8.29718 20 8.50715V17.7861H22V19.7861H0V17.7861H2ZM4 17.7861H11V2.64115L4 5.18715V17.7861ZM18 17.7861V9.22815L13 7.56115V17.7861H18Z" fill="inherit"/>
</svg>
